<?xml version="1.0" encoding="UTF-8" standalone="no"?>
<!DOCTYPE svg PUBLIC "-//W3C//DTD SVG 1.1//EN" "http://www.w3.org/Graphics/SVG/1.1/DTD/svg11.dtd">
<svg width="100%" height="100%" viewBox="0 0 52 56" version="1.1" xmlns="http://www.w3.org/2000/svg" xmlns:xlink="http://www.w3.org/1999/xlink" xml:space="preserve" xmlns:serif="http://www.serif.com/" style="fill-rule:evenodd;clip-rule:evenodd;stroke-linejoin:round;stroke-miterlimit:2;">
    <g transform="matrix(0.678679,-0.734435,0.678679,0.734435,-26.5114,10.2866)">
        <clipPath id="_clip1">
            <path d="M32.208,43.84L26.643,24.015L21.073,45.398L-0,50.062L21.073,55.507L26.643,76.109L31.811,55.507L52.094,50.062L32.208,43.84Z"/>
        </clipPath>
        <g clip-path="url(#_clip1)">
            <path d="M32.208,43.84L29.319,44.651L29.759,46.217L31.312,46.703L32.208,43.84ZM26.643,24.015L29.531,23.204L26.535,12.529L23.74,23.259L26.643,24.015ZM21.073,45.398L21.721,48.327L23.513,47.93L23.976,46.154L21.073,45.398ZM0,50.062L-0.648,47.133L-0.751,52.967L0,50.062ZM21.073,55.507L23.969,54.724L23.513,53.039L21.823,52.603L21.073,55.507ZM26.643,76.109L23.747,76.892L26.752,88.006L29.553,76.839L26.643,76.109ZM31.811,55.507L31.033,52.61L29.33,53.067L28.901,54.777L31.811,55.507ZM52.094,50.062L52.872,52.959L62.845,50.282L52.99,47.199L52.094,50.062ZM35.096,43.029L29.531,23.204L23.754,24.826L29.319,44.651L35.096,43.029ZM23.74,23.259L18.17,44.642L23.976,46.154L29.546,24.771L23.74,23.259ZM20.425,42.469L-0.648,47.133L0.648,52.991L21.721,48.327L20.425,42.469ZM-0.751,52.967L20.322,58.412L21.823,52.603L0.751,47.157L-0.751,52.967ZM18.177,56.29L23.747,76.892L29.539,75.326L23.969,54.724L18.177,56.29ZM29.553,76.839L34.72,56.237L28.901,54.777L23.733,75.379L29.553,76.839ZM32.588,58.405L52.872,52.959L51.316,47.165L31.033,52.61L32.588,58.405ZM52.99,47.199L33.103,40.977L31.312,46.703L51.199,52.925L52.99,47.199Z" style="fill-rule:nonzero;"/>
        </g>
    </g>
</svg>
